<svg width="52" height="52" viewBox="0 0 52 52" fill="none" xmlns="http://www.w3.org/2000/svg">
<circle cx="25.9682" cy="25.9682" r="25.2182" stroke="#9F938B" stroke-width="1.5"/>
<path d="M29.543 14.3962C29.543 14.15 29.4945 13.9062 29.4003 13.6788C29.3061 13.4513 29.168 13.2447 28.9939 13.0706C28.8198 12.8965 28.6132 12.7584 28.3857 12.6642C28.1583 12.57 27.9145 12.5215 27.6683 12.5215H18.7193C18.2282 12.5245 17.7579 12.7204 17.4099 13.067C17.0618 13.4136 16.864 13.8831 16.859 14.3743C16.854 14.8654 17.0422 15.3389 17.3831 15.6925C17.7239 16.0461 18.1902 16.2516 18.6811 16.2647V35.2343C18.6802 36.1453 18.9552 37.0352 19.47 37.7869C19.9848 38.5385 20.7152 39.1165 21.565 39.4448C22.4148 39.7731 23.3441 39.8363 24.2305 39.626C25.1169 39.4157 25.9189 38.9418 26.5306 38.2668C27.2205 38.9551 28.0941 39.4298 29.0469 39.6343C29.4031 39.7085 29.7659 39.7459 30.1297 39.7461C30.8026 39.7476 31.4692 39.6163 32.0912 39.3597C32.7133 39.1032 33.2786 38.7265 33.7549 38.2511C34.2311 37.7758 34.6089 37.2112 34.8666 36.5896C35.1243 35.968 35.2569 35.3017 35.2567 34.6288C35.2295 33.5933 34.9141 32.5858 34.3461 31.7196L30.6727 24.8925C30.6218 24.7944 30.5445 24.7125 30.4496 24.656C30.3546 24.5995 30.2458 24.5707 30.1353 24.5727C30.0251 24.5732 29.9171 24.6036 29.8229 24.6607C29.7286 24.7178 29.6517 24.7995 29.6003 24.897L27.7075 28.4867V16.2664C28.1971 16.2561 28.6633 16.0547 29.0063 15.7052C29.3493 15.3557 29.5419 14.8859 29.543 14.3962ZM23.1943 38.5324C22.3199 38.5314 21.4816 38.1836 20.8633 37.5653C20.2451 36.947 19.8973 36.1087 19.8962 35.2343V16.2695H26.4924V30.7912C26.4924 30.7912 25.8221 32.0903 25.6971 32.3601V22.188C25.6971 22.0269 25.6331 21.8724 25.5191 21.7584C25.4052 21.6445 25.2507 21.5805 25.0895 21.5805H21.2995C21.2197 21.5805 21.1407 21.5961 21.0669 21.6267C20.9932 21.6572 20.9262 21.7019 20.8698 21.7583C20.8134 21.8148 20.7686 21.8818 20.7381 21.9555C20.7076 22.0292 20.6919 22.1083 20.692 22.188V34.9805C20.691 35.522 20.8659 36.0492 21.1903 36.4827C21.5148 36.9163 21.9712 37.2327 22.491 37.3845C23.0108 37.5363 23.5659 37.5151 24.0726 37.3242C24.5794 37.1334 25.0104 36.7831 25.301 36.3261C25.4185 36.666 25.5729 36.9919 25.7613 37.2982C25.4531 37.683 25.0625 37.9936 24.6182 38.2072C24.1739 38.4208 23.6873 38.532 23.1943 38.5324ZM24.482 22.797V34.9805C24.4848 35.1514 24.4536 35.3211 24.3901 35.4797C24.3267 35.6384 24.2323 35.7828 24.1125 35.9047C23.9926 36.0265 23.8498 36.1232 23.6922 36.1893C23.5346 36.2553 23.3654 36.2893 23.1945 36.2893C23.0236 36.2893 22.8545 36.2553 22.6969 36.1893C22.5393 36.1232 22.3964 36.0265 22.2766 35.9047C22.1567 35.7828 22.0623 35.6384 21.9989 35.4797C21.9355 35.3211 21.9042 35.1514 21.907 34.9805V22.797H24.482ZM30.1433 26.4728L33.2827 32.3077C33.2869 32.316 33.2915 32.3241 33.2966 32.332C33.7525 33.014 34.0104 33.8091 34.0416 34.6288C34.0425 35.2094 33.9135 35.7829 33.6639 36.3071C33.4144 36.8314 33.0507 37.2932 32.5995 37.6586C32.1419 38.0276 31.6076 38.2896 31.0357 38.4256C30.4639 38.5616 29.8688 38.5681 29.2941 38.4446C28.5861 38.2913 27.9351 37.9431 27.4146 37.4393C26.8942 36.9355 26.525 36.2962 26.3487 35.5936C26.0495 34.3327 26.5917 33.2589 27.167 32.1219L30.1433 26.4728ZM27.6693 15.0544H18.7193C18.6295 15.0599 18.5395 15.0469 18.4549 15.0163C18.3703 14.9857 18.2928 14.9381 18.2273 14.8764C18.1617 14.8147 18.1095 14.7403 18.0738 14.6577C18.0381 14.5751 18.0197 14.486 18.0197 14.396C18.0197 14.306 18.0381 14.217 18.0738 14.1344C18.1095 14.0518 18.1617 13.9773 18.2273 13.9157C18.2928 13.854 18.3703 13.8064 18.4549 13.7758C18.5395 13.7451 18.6295 13.7322 18.7193 13.7376H27.6693C27.7592 13.7322 27.8492 13.7451 27.9338 13.7758C28.0184 13.8064 28.0959 13.854 28.1614 13.9157C28.227 13.9773 28.2792 14.0518 28.3149 14.1344C28.3506 14.217 28.369 14.306 28.369 14.396C28.369 14.486 28.3506 14.5751 28.3149 14.6577C28.2792 14.7403 28.227 14.8147 28.1614 14.8764C28.0959 14.9381 28.0184 14.9857 27.9338 15.0163C27.8492 15.0469 27.7592 15.0599 27.6693 15.0544Z" fill="#9F938B"/>
</svg>
